<?xml version="1.0" encoding="utf-8"?>
<svg viewBox="41.641 0 395.92 381.022" xmlns="http://www.w3.org/2000/svg">
  <path style="fill: rgb(28, 28, 28);" d="M 442.226 210.915 C 440.81 225.165 436.501 237.566 431.899 251.064 C 426.981 265.5 424.662 280.587 419.667 294.982 C 415.165 307.957 397.841 312.329 388.303 301.84 C 368.616 280.207 348.652 258.416 325.591 240.268 C 316.557 233.157 325.582 218.201 335.427 224.961 C 347.581 233.309 360.076 241.147 372.614 248.919 C 361.313 204.599 333.892 155.181 289.789 137.104 C 276.905 131.827 262.193 130.123 248.623 133.275 C 251.847 139.787 254.376 146.634 256.07 153.75 C 260.69 173.208 257.605 198.936 238.178 209.609 C 214.644 222.543 187.346 205.279 180.963 181.392 C 172.639 150.222 188.589 125.361 212.707 110.463 C 198.994 97.559 181.586 88.734 162.721 86.172 C 116.061 79.836 71.98 116.347 62.3 160.527 C 60.135 170.4 45.295 165.469 47.323 155.706 C 57.13 108.534 99.784 71.944 148.567 71.296 C 177.293 70.913 205.779 83.341 226.558 103.364 C 244.901 95.662 265.733 93.01 283.777 96.658 C 348.498 109.739 391.193 174.792 408.142 235.106 C 414.572 224.07 421.427 214.344 431.91 206.101 C 435.833 203.006 442.792 205.215 442.226 210.915 Z M 237.959 153.814 C 237.062 148.87 235.465 143.985 233.398 139.274 C 232.307 139.915 231.234 140.59 230.179 141.322 C 221.519 147.309 213.573 156.948 212.668 167.778 C 211.846 177.59 219.647 190.693 230.745 184.134 C 239.682 178.854 239.523 162.506 237.959 153.814 Z" transform="matrix(0.927184, 0.374607, -0.374607, 0.927184, 88.804077, -77.866341)"/>
</svg>