<?xml version="1.0" encoding="utf-8"?>
<svg viewBox="0 0 500 200" xmlns="http://www.w3.org/2000/svg">
  <path d="M 50.646 148.989 Q 46.306 148.989 43.296 145.979 Q 40.286 142.969 40.286 138.489 Q 40.286 136.389 41.056 134.429 Q 41.826 132.469 43.506 130.929 L 75.146 99.989 L 53.866 99.989 Q 51.206 99.989 48.756 99.499 Q 46.306 99.009 44.766 96.769 Q 43.226 94.529 43.226 89.489 Q 43.226 84.309 44.766 82.139 Q 46.306 79.969 48.756 79.479 Q 51.206 78.989 53.866 78.989 L 97.686 78.989 Q 102.166 78.989 105.106 81.929 Q 108.046 84.869 108.046 89.349 Q 108.046 91.589 107.276 93.549 Q 106.506 95.509 105.106 96.769 L 74.026 127.849 L 99.366 127.849 Q 102.166 127.849 104.546 128.409 Q 106.926 128.969 108.396 131.209 Q 109.866 133.449 109.866 138.629 Q 109.866 143.669 108.326 145.909 Q 106.786 148.149 104.406 148.569 Q 102.026 148.989 99.226 148.989 Z" style="white-space: pre;"/>
  <path d="M 148.64 148.849 Q 142.2 148.849 136.53 146.329 Q 130.86 143.809 126.66 139.259 Q 122.46 134.709 120.15 128.479 Q 117.84 122.249 117.84 114.829 L 117.84 89.489 Q 117.84 86.689 118.4 84.309 Q 118.96 81.929 121.13 80.389 Q 123.3 78.849 128.48 78.849 Q 133.66 78.849 135.83 80.389 Q 138 81.929 138.49 84.379 Q 138.98 86.829 138.98 89.629 L 138.98 114.829 Q 138.98 118.889 140.45 121.899 Q 141.92 124.909 144.79 126.449 Q 147.66 127.989 151.58 127.989 Q 155.64 127.989 158.51 126.379 Q 161.38 124.769 162.99 121.829 Q 164.6 118.889 164.6 114.829 L 164.6 89.349 Q 164.6 86.549 165.16 84.169 Q 165.72 81.789 167.89 80.319 Q 170.06 78.849 175.24 78.849 Q 180.42 78.849 182.59 80.389 Q 184.76 81.929 185.25 84.379 Q 185.74 86.829 185.74 89.489 L 185.74 138.769 Q 185.74 141.429 185.25 143.739 Q 184.76 146.049 182.52 147.449 Q 180.28 148.849 175.24 148.849 Q 171.46 148.849 169.36 148.009 Q 167.26 147.169 166.28 145.909 Q 165.3 144.649 165.09 143.249 Q 164.88 141.849 164.88 140.729 L 166.7 139.189 Q 166.28 139.749 164.88 141.289 Q 163.48 142.829 161.17 144.579 Q 158.86 146.329 155.78 147.589 Q 152.7 148.849 148.64 148.849 Z" style="white-space: pre;"/>
  <path d="M 222.146 150.109 Q 218.366 150.109 213.956 149.269 Q 209.546 148.429 205.346 146.819 Q 201.146 145.209 198.346 143.039 Q 195.546 140.869 195.126 138.069 Q 194.846 136.669 195.196 135.059 Q 195.546 133.449 196.526 131.699 Q 197.506 129.949 198.906 127.989 Q 200.026 126.449 201.426 126.029 Q 202.826 125.609 204.646 126.169 Q 206.886 126.589 209.196 127.639 Q 211.506 128.689 213.816 129.879 Q 216.126 131.069 218.646 131.979 Q 221.166 132.889 223.826 132.889 Q 227.746 132.889 229.916 131.699 Q 232.086 130.509 232.086 128.409 Q 232.086 126.869 231.176 125.889 Q 230.266 124.909 228.656 124.139 Q 227.046 123.369 224.946 122.809 Q 222.846 122.249 220.396 121.619 Q 217.946 120.989 215.426 120.289 Q 211.926 119.309 208.706 117.769 Q 205.486 116.229 202.826 113.779 Q 200.166 111.329 198.626 107.759 Q 197.086 104.189 197.086 99.009 Q 197.086 92.149 200.306 87.529 Q 203.526 82.909 209.686 80.459 Q 215.846 78.009 224.666 78.009 Q 227.186 78.009 229.706 78.289 Q 232.226 78.569 234.676 79.269 Q 237.126 79.969 239.506 80.949 Q 241.886 81.929 244.266 83.329 Q 248.466 85.289 248.606 88.649 Q 248.746 92.009 246.226 95.509 Q 244.686 97.889 243.006 98.939 Q 241.326 99.989 239.506 99.569 Q 237.266 99.009 234.676 97.749 Q 232.086 96.489 229.216 95.369 Q 226.346 94.249 223.546 94.249 Q 221.166 94.249 219.486 94.879 Q 217.806 95.509 216.966 96.559 Q 216.126 97.609 216.126 99.009 Q 216.126 100.829 217.176 101.879 Q 218.226 102.929 220.046 103.629 Q 221.866 104.329 224.246 104.889 Q 226.626 105.449 229.426 106.009 Q 233.206 106.709 237.196 107.899 Q 241.186 109.089 244.476 111.329 Q 247.766 113.569 249.796 117.349 Q 251.826 121.129 251.826 127.289 Q 251.826 138.349 244.126 144.229 Q 236.426 150.109 222.146 150.109 Z" style="white-space: pre;"/>
  <path d="M 294.801 148.989 Q 287.661 148.989 282.551 147.449 Q 277.441 145.909 274.081 142.689 Q 270.721 139.469 269.111 134.499 Q 267.501 129.529 267.501 122.669 L 267.501 65.829 Q 267.501 63.029 267.991 60.789 Q 268.481 58.549 270.721 57.079 Q 272.961 55.609 278.001 55.609 Q 283.041 55.609 285.281 57.149 Q 287.521 58.689 288.011 61.069 Q 288.501 63.449 288.501 66.249 L 288.501 121.829 Q 288.501 124.069 288.851 125.539 Q 289.201 127.009 289.901 127.709 Q 290.601 128.409 291.861 128.689 Q 293.121 128.969 294.941 128.969 Q 298.021 128.969 300.401 129.529 Q 302.781 130.089 304.111 132.049 Q 305.441 134.009 305.441 138.629 Q 305.441 143.669 303.901 145.909 Q 302.361 148.149 299.911 148.569 Q 297.461 148.989 294.801 148.989 Z M 263.161 80.109 L 278.561 80.109 L 297.881 79.549 Q 300.541 79.549 302.921 80.039 Q 305.301 80.529 306.841 82.769 Q 308.381 85.009 308.381 90.189 Q 308.381 94.949 306.911 97.189 Q 305.441 99.429 303.061 100.059 Q 300.681 100.689 297.881 100.689 L 279.541 100.269 L 262.601 100.269 Q 258.541 100.129 256.931 97.819 Q 255.321 95.509 255.321 90.049 Q 255.321 85.009 257.281 82.559 Q 259.241 80.109 263.161 80.109 Z" style="white-space: pre;"/>
  <path d="M 325.88 149.129 Q 319.44 149.129 316.92 146.609 Q 314.4 144.089 314.4 137.929 Q 314.4 133.589 315.52 131.069 Q 316.64 128.549 319.16 127.429 Q 321.68 126.309 325.88 126.309 Q 332.32 126.309 334.77 128.829 Q 337.22 131.349 337.22 137.789 Q 337.22 141.989 336.17 144.509 Q 335.12 147.029 332.6 148.079 Q 330.08 149.129 325.88 149.129 Z" style="white-space: pre;"/>
  <path d="M 403.16 148.849 Q 397.98 148.849 395.53 147.029 Q 393.08 145.209 393.08 142.549 L 394.48 140.169 Q 393.64 141.569 391.26 143.599 Q 388.88 145.629 385.1 147.239 Q 381.32 148.849 375.72 148.849 Q 369.28 148.849 363.47 146.049 Q 357.66 143.249 353.18 138.279 Q 348.7 133.309 346.11 127.009 Q 343.52 120.709 343.52 113.709 Q 343.52 106.849 346.11 100.619 Q 348.7 94.389 353.25 89.559 Q 357.8 84.729 363.54 81.929 Q 369.28 79.129 375.72 79.129 Q 380.9 79.129 384.54 80.599 Q 388.18 82.069 390.63 84.029 Q 393.08 85.989 394.34 87.809 L 393.22 85.849 Q 393.08 82.489 395.53 80.739 Q 397.98 78.989 403.3 78.989 Q 408.34 78.989 410.51 80.529 Q 412.68 82.069 413.17 84.589 Q 413.66 87.109 413.66 89.909 L 413.66 138.209 Q 413.66 140.869 413.17 143.389 Q 412.68 145.909 410.51 147.379 Q 408.34 148.849 403.16 148.849 Z M 378.8 127.989 Q 382.44 127.989 385.45 126.099 Q 388.46 124.209 390.21 120.989 Q 391.96 117.769 391.96 113.849 Q 391.96 109.789 390.14 106.639 Q 388.32 103.489 385.24 101.599 Q 382.16 99.709 378.52 99.709 Q 374.46 99.709 371.31 101.669 Q 368.16 103.629 366.27 106.849 Q 364.38 110.069 364.38 114.129 Q 364.38 117.909 366.27 121.059 Q 368.16 124.209 371.45 126.099 Q 374.74 127.989 378.8 127.989 Z" style="white-space: pre;"/>
  <path d="M 436.06 148.989 Q 430.88 148.989 428.71 147.519 Q 426.54 146.049 426.05 143.599 Q 425.56 141.149 425.56 138.489 L 425.56 89.629 Q 425.56 86.829 426.05 84.449 Q 426.54 82.069 428.78 80.599 Q 431.02 79.129 436.2 79.129 Q 441.24 79.129 443.41 80.669 Q 445.58 82.209 446.07 84.589 Q 446.56 86.969 446.56 89.909 L 446.56 138.629 Q 446.56 141.289 446.07 143.739 Q 445.58 146.189 443.41 147.589 Q 441.24 148.989 436.06 148.989 Z M 436.06 68.909 Q 430.74 68.909 428.5 67.369 Q 426.26 65.829 425.77 63.309 Q 425.28 60.789 425.28 57.989 Q 425.28 55.049 425.84 52.599 Q 426.4 50.149 428.64 48.679 Q 430.88 47.209 436.2 47.209 Q 441.38 47.209 443.62 48.749 Q 445.86 50.289 446.35 52.809 Q 446.84 55.329 446.84 58.129 Q 446.84 60.929 446.35 63.449 Q 445.86 65.969 443.62 67.439 Q 441.38 68.909 436.06 68.909 Z" style="white-space: pre;"/>
</svg>